<svg width="753" height="183" viewBox="0 0 753 183" fill="none" xmlns="http://www.w3.org/2000/svg">
<g clip-path="url(#clip0_279_569)">
<path d="M75.5971 181.663C74.4108 181.473 73.2705 181.062 72.235 180.453L72.7553 177.391C73.6388 178.107 74.6944 178.58 75.8173 178.762C77.008 178.962 77.8185 178.682 77.9586 178.031C78.0987 177.381 77.3682 176.87 75.9573 176.03C73.9561 174.789 72.5852 173.608 72.9555 171.297C73.3257 168.986 75.427 167.755 78.669 168.295C80.0182 168.513 81.3147 168.981 82.4914 169.676L81.9411 172.858C81.0756 172.183 80.0864 171.683 79.0293 171.387C78.7009 171.299 78.3664 171.235 78.0286 171.197C76.948 171.087 76.3076 171.267 76.2075 171.807C76.0974 172.498 76.8479 172.978 78.3388 173.809C80.3401 175.019 81.6309 176.17 81.2206 178.552C80.8104 180.933 78.559 182.174 75.5971 181.663Z" fill="#10099F"/>
<path d="M67.312 165.744L62.9192 178.231L59.7573 177.111L64.15 164.663L67.312 165.744Z" fill="#10099F"/>
<path d="M45.1581 170.386C43.8904 169.679 42.7992 168.693 41.9661 167.504L43.4971 164.853C44.2802 165.977 45.3062 166.911 46.499 167.584C46.9286 167.871 47.4132 168.066 47.922 168.155C48.4308 168.244 48.9526 168.227 49.4543 168.103C49.9559 167.98 50.4264 167.754 50.8358 167.439C51.2452 167.124 51.5846 166.727 51.8323 166.274C52.104 165.845 52.2842 165.365 52.3617 164.864C52.4391 164.363 52.4122 163.851 52.2826 163.36C52.1529 162.87 51.9233 162.412 51.6082 162.014C51.2931 161.617 50.8993 161.289 50.4514 161.05C50.0487 160.825 49.6226 160.643 49.1806 160.51L47.5496 163.342L44.7679 161.741L47.4996 156.998C49.0727 157.149 50.5947 157.637 51.9624 158.429C52.7738 158.857 53.4912 159.443 54.0722 160.153C54.6532 160.863 55.086 161.682 55.345 162.562C55.6041 163.442 55.6841 164.365 55.5804 165.277C55.4767 166.188 55.1913 167.069 54.7411 167.869C54.291 168.668 53.6852 169.369 52.9595 169.93C52.2338 170.491 51.4031 170.902 50.5162 171.136C49.6294 171.371 48.7045 171.425 47.7963 171.297C46.888 171.168 46.0148 170.858 45.2282 170.386H45.1581Z" fill="#10099F"/>
<path d="M42.3464 152.065L33.771 162.121L31.2194 159.95L39.7848 149.944L42.3464 152.065Z" fill="#10099F"/>
<path d="M34.4615 144.76L24.3852 153.316L22.2138 150.764L30.1288 144.03L27.0368 140.398L29.1982 138.566L34.4615 144.76Z" fill="#10099F"/>
<path d="M25.5959 133.283L14.1288 139.837L12.4577 136.915L21.4634 131.772L19.0919 127.63L21.5534 126.229L25.5959 133.283Z" fill="#10099F"/>
<path d="M6.38392 124.618L5.3833 121.416L12.958 119.014C13.2709 118.933 13.5639 118.788 13.8191 118.59C14.0744 118.391 14.2866 118.143 14.4427 117.86C14.5988 117.577 14.6957 117.265 14.7274 116.943C14.7591 116.621 14.7249 116.297 14.6269 115.988C14.529 115.68 14.3693 115.395 14.1577 115.151C13.946 114.906 13.6868 114.708 13.3958 114.567C13.1049 114.426 12.7882 114.345 12.4652 114.331C12.1423 114.316 11.8197 114.367 11.5171 114.482L3.9424 116.883L2.94178 113.661L10.8267 111.189C13.8286 110.249 16.3802 111.64 17.4809 115.102C18.5815 118.564 17.2607 121.206 14.2989 122.106L6.38392 124.618Z" fill="#10099F"/>
<path d="M0.760484 103.485V103.405L6.22389 96.6404L0.010016 90.5566V90.4666L13.3784 89.6761L13.5585 92.8981L6.86429 93.2983L7.62477 94.0988C8.45529 94.8693 9.29581 95.6298 10.1063 96.4103C9.38587 97.2808 8.64541 98.1314 7.91495 99.0019L7.24453 99.9025L13.9487 99.5122L14.1388 102.704L0.760484 103.485Z" fill="#10099F"/>
<path d="M3.09202 68.7127L4.09264 65.5207L11.6373 67.9822C11.9392 68.0988 12.2617 68.1526 12.585 68.1404C12.9084 68.1282 13.2259 68.0503 13.5181 67.9113C13.8103 67.7723 14.0712 67.5753 14.2847 67.3321C14.4982 67.089 14.66 66.8049 14.76 66.4972C14.8601 66.1894 14.8964 65.8645 14.8668 65.5423C14.8371 65.2201 14.7421 64.9073 14.5875 64.623C14.4329 64.3387 14.2221 64.0889 13.9677 63.8889C13.7134 63.6888 13.421 63.5427 13.1083 63.4594L5.55355 61.0078L6.60421 57.7958L14.4991 60.3674C17.441 61.3681 18.7418 63.9697 17.6211 67.4218C16.5004 70.874 13.9488 72.2349 10.9469 71.2843L3.09202 68.7127Z" fill="#10099F"/>
<path d="M10.8869 48.2703L19.4622 45.6686C19.9125 45.5085 20.3728 45.3885 20.803 45.2184L15.1295 41.7262L16.8606 38.9144L28.2677 45.9188L28.1977 46.0289L19.5723 48.6605L18.2615 49.1508L23.955 52.623L22.2339 55.4147L10.8268 48.4104L10.8869 48.2703Z" fill="#10099F"/>
<path d="M32.8205 40.1949L23.0644 31.2993L25.3259 28.8178L35.0819 37.7133L32.8205 40.1949Z" fill="#10099F"/>
<path d="M33.9612 20.7229L37.5134 22.6041C38.6942 23.2445 39.8549 23.8649 40.6854 24.4352C40.5754 23.9649 39.995 21.8436 39.7749 20.883L38.9644 16.9606L41.8862 14.7392L44.6479 29.4484L44.5378 29.5384L31.0494 22.9543L33.9612 20.7229Z" fill="#10099F"/>
<path d="M49.3108 10.5465L57.1557 6.88418L58.3465 9.43578L53.5435 11.6872L54.5441 13.8085L58.6466 11.8873L59.7773 14.3188L55.6748 16.24L56.7454 18.5315L61.7486 16.17L62.9493 18.7216L54.8543 22.5139L49.3108 10.5465Z" fill="#10099F"/>
<path d="M69.2231 16.5705L66.2213 3.71247L70.9042 2.62179C73.9761 1.90134 76.4476 2.89196 77.1181 5.78377C77.3391 6.56132 77.3144 7.38816 77.0476 8.15118C76.7807 8.9142 76.2846 9.57613 75.6271 10.0464L79.3294 14.209L75.9173 15.0095L72.8554 11.2572L71.4345 11.5974L72.4351 15.83L69.2231 16.5705ZM70.8241 8.98577L72.4652 8.60553C72.6944 8.58239 72.9157 8.50911 73.1135 8.39088C73.3113 8.27266 73.4806 8.11238 73.6095 7.92141C73.7384 7.73044 73.8237 7.51346 73.8594 7.28584C73.8951 7.05822 73.8803 6.82553 73.816 6.60428C73.7766 6.37283 73.6864 6.15299 73.5519 5.96051C73.4175 5.76804 73.2421 5.6077 73.0384 5.49101C72.8346 5.37432 72.6076 5.30417 72.3736 5.28558C72.1395 5.267 71.9043 5.30044 71.6847 5.38352L70.0637 5.76375L70.8241 8.98577Z" fill="#10099F"/>
<path d="M89.776 0.00977881C90.9761 -0.033704 92.1738 0.146122 93.3082 0.540109L93.3782 3.64205C92.3763 3.10803 91.2508 2.84908 90.1162 2.89158C88.9054 2.89158 88.115 3.36187 88.115 4.02229C88.115 4.6827 88.9155 5.02291 90.4664 5.63329C92.7078 6.46381 94.2488 7.36437 94.3088 9.70583C94.3689 12.0473 92.5677 13.7083 89.3057 13.7083C87.9443 13.7564 86.5862 13.5458 85.3032 13.0879L85.2231 9.86593C86.2038 10.3579 87.2711 10.6536 88.3651 10.7365C88.6982 10.7596 89.0326 10.7596 89.3657 10.7365C90.4464 10.6364 91.0468 10.3262 91.0368 9.73585C91.0368 9.03541 90.1862 8.73523 88.5552 8.14486C86.3138 7.35436 84.8629 6.47381 84.8029 4.0523C84.7428 1.63079 86.7641 0.119848 89.776 0.00977881Z" fill="#10099F"/>
<path d="M101.003 13.9786L102.834 0.900464L106.166 1.37076L104.325 14.4389L101.003 13.9786Z" fill="#10099F"/>
<path d="M114.602 2.98184L124.518 6.1238L123.657 8.80548L120.305 7.73481L117.143 17.631L113.921 16.6304L117.093 6.73418L113.731 5.66352L114.602 2.98184Z" fill="#10099F"/>
<path d="M124.948 20.5531L137.326 12.2479L137.476 12.3279L136.475 27.2072L133.473 25.4461L133.673 23.2347L129.831 21.0134L128.02 22.3042L124.948 20.5531ZM133.954 20.8032C134.084 19.6725 134.274 18.2816 134.454 17.4511C134.074 17.7413 132.523 19.0021 131.782 19.5524L133.954 20.8032Z" fill="#10099F"/>
<path d="M149.103 20.3628L156.828 27.3672L154.927 29.4585L152.315 27.137L145.311 34.8318L142.809 32.5704L149.813 24.8656L147.202 22.5041L149.103 20.3628Z" fill="#10099F"/>
<path d="M152.035 41.966L162.411 33.8009L164.483 36.4425L154.106 44.5976L152.035 41.966Z" fill="#10099F"/>
<path d="M172.247 48.0198C172.831 49.0682 173.217 50.2144 173.388 51.4019L170.676 52.8928C170.682 51.7576 170.392 50.6404 169.836 49.6508C169.256 48.5901 168.515 48.1198 167.935 48.43C167.354 48.7402 167.394 49.6108 167.585 51.2618C167.875 53.6333 167.785 55.4144 165.723 56.5451C163.662 57.6758 161.421 56.8052 159.84 53.9234C159.174 52.7343 158.736 51.4311 158.549 50.081L161.381 48.5301C161.395 49.6265 161.619 50.7099 162.041 51.7221C162.18 52.0413 162.344 52.3491 162.531 52.6426C163.112 53.5632 163.662 53.9535 164.142 53.6433C164.623 53.3331 164.663 52.4225 164.423 50.7114C164.092 48.36 164.212 46.7089 166.334 45.5082C168.455 44.3074 170.807 45.3781 172.247 48.0198Z" fill="#10099F"/>
<path d="M167.815 74.006L180.743 71.3243L181.423 74.6163L168.495 77.298L167.815 74.006Z" fill="#10099F"/>
<path d="M183.174 88.4454C183.229 89.6462 183.062 90.8468 182.684 91.9876L179.582 92.0977C180.102 91.0883 180.347 89.9598 180.293 88.8256C180.242 87.6149 179.792 86.8244 179.132 86.8844C178.471 86.9445 178.131 87.6949 177.551 89.2559C176.76 91.5073 175.88 93.0683 173.548 93.1483C171.217 93.2284 169.546 91.4673 169.456 88.1452C169.389 86.7869 169.582 85.4283 170.026 84.1427L173.248 84.0226C172.769 85.0098 172.483 86.0799 172.408 87.1746C172.384 87.5077 172.384 87.8421 172.408 88.1752C172.528 89.2559 172.838 89.8463 173.408 89.8263C173.979 89.8062 174.409 88.9657 174.969 87.3347C175.73 85.0833 176.59 83.6124 178.972 83.5223C181.353 83.4323 183.054 85.4335 183.174 88.4454Z" fill="#10099F"/>
<path d="M169.416 99.8025L182.424 101.804L181.924 105.126L171.657 103.575L170.937 108.288L168.145 107.868L169.416 99.8025Z" fill="#10099F"/>
<path d="M167.174 112.65L177.411 123.497L177.351 123.647L162.511 125.108L163.742 121.826L165.954 121.656L167.515 117.493L165.944 115.932L167.174 112.65ZM168.405 121.556C169.546 121.486 170.947 121.446 171.797 121.486C171.447 121.166 169.946 119.835 169.286 119.194L168.405 121.556Z" fill="#10099F"/>
<path d="M170.777 137.826L162.101 140.087C161.651 140.237 161.181 140.338 160.75 140.488L166.284 144.2L164.443 146.942L153.326 139.487L153.396 139.377L162.111 137.075L163.432 136.685L157.909 132.973L159.73 130.251L170.857 137.706L170.777 137.826Z" fill="#10099F"/>
<path d="M148.763 145.1L157.768 154.806L154.526 157.808C151.124 160.95 147.132 160.81 144.52 158.038C141.909 155.267 142.149 151.244 145.521 148.122L148.763 145.1ZM147.442 150.214C145.441 152.025 145.591 154.266 146.982 155.777C148.373 157.288 150.604 157.578 152.585 155.777L153.336 155.077L148.212 149.523L147.442 150.214Z" fill="#10099F"/>
<path d="M134.484 156.858L141.488 168.055L138.647 169.836L131.642 158.639L134.484 156.858Z" fill="#10099F"/>
<path d="M126.559 161.721L125.368 176.59L125.208 176.65L114.201 166.644L117.463 165.353L119.074 166.884L123.207 165.253L123.317 163.042L126.559 161.721ZM120.765 168.605C121.576 169.406 122.557 170.426 123.087 171.087C123.087 170.607 123.087 168.605 123.087 167.685L120.765 168.605Z" fill="#10099F"/>
<path d="M110.529 180.953L101.994 182.354L101.533 179.562L106.767 178.711L106.386 176.39L101.914 177.12L101.483 174.479L105.956 173.748L105.546 171.247L100.042 172.147L99.5822 169.366L108.398 167.925L110.529 180.953Z" fill="#10099F"/>
<path d="M55.4346 119.114C56.6553 119.034 55.8748 115.872 56.9355 115.272C57.9962 114.672 60.3476 113.981 60.938 115.952C62.0498 115.859 63.1153 115.465 64.0199 114.812C67.252 111.149 63.3695 108.168 62.7992 107.807C61.8986 107.287 59.4571 106.507 59.0068 107.697C59.297 108.278 60.2476 107.917 60.908 108.148C61.5928 108.385 62.1894 108.825 62.6191 109.408C63.0393 110.119 62.8992 111.18 61.8986 111.27C61.3483 111.33 59.8974 110.469 58.4465 110.429C55.7848 110.369 51.282 112.04 50.3514 109.719C49.721 108.128 52.4727 99.7123 53.7936 96.3002C53.9837 95.7999 54.6841 94.299 54.0437 94.2189C53.9736 94.2014 53.8998 94.2054 53.832 94.2304C53.7642 94.2554 53.7055 94.3002 53.6635 94.359C52.973 96.01 48.4102 108.078 47.9199 110.109C47.5096 111.82 47.5997 113.191 48.3902 114.111C49.1807 115.032 50.2013 114.992 51.392 114.902C53.3933 114.752 54.3939 115.102 54.8842 116.693C55.1344 117.543 55.1944 118.134 55.4346 119.114Z" fill="#10099F"/>
<path d="M61.2081 131.092C62.4289 129.811 65.761 129.091 66.5214 126.759C66.5815 126.559 66.5214 125.698 66.1712 125.638C65.6009 125.558 65.6009 126.159 65.0905 126.349C64.0299 126.749 62.8391 126.349 61.4483 126.349C59.447 126.349 57.3057 126.649 57.1956 128.1C58.4964 129.281 60.1374 129.371 60.3676 132.193C60.978 132.203 60.978 131.532 61.2081 131.092Z" fill="#10099F"/>
<path d="M60.7278 96.8306C59.7272 98.4416 62.1887 99.2321 63.2294 99.6424C64.9505 100.323 67.0818 99.3322 68.2325 97.9813C68.525 97.527 68.7634 97.04 68.9429 96.5304C69.103 96.0101 69.103 95.7899 68.7428 95.5998C68.3826 95.4097 67.9924 95.2296 67.492 94.9694C65.6909 96.0401 63.3595 98.1814 60.7278 96.8306Z" fill="#10099F"/>
<path d="M61.4182 123.637C62.729 123.637 63.8598 124.388 65.0105 124.358C65.901 124.358 68.0123 124.057 68.4626 122.086C66.18 122.159 63.909 121.732 61.8085 120.835C60.9279 120.465 59.9773 119.525 59.0768 119.775C57.9361 120.085 56.6953 121.396 54.674 121.346C54.779 122.003 55.0649 122.618 55.4996 123.121C55.9344 123.625 56.5009 123.998 57.1356 124.197C58.5665 124.528 59.9773 123.647 61.4182 123.637Z" fill="#10099F"/>
<path d="M57.7761 90.7967C57.8407 91.0475 57.9277 91.292 58.0362 91.5272C59.4071 91.0669 61.0381 91.6673 60.7879 93.4084C60.7755 93.5916 60.713 93.7679 60.6071 93.9179C60.5012 94.0679 60.356 94.1859 60.1876 94.2589C60.4677 95.0994 60.4177 95.1495 61.0981 95.6698C61.0142 95.4335 61.0142 95.1756 61.0981 94.9393C61.7485 94.5591 62.5891 94.2689 62.8392 93.1082C63.2463 93.3958 63.5314 93.8249 63.6387 94.3117C63.7461 94.7984 63.6679 95.3077 63.4196 95.7398C64.5608 95.5581 65.6303 95.0666 66.5115 94.3189C64.8304 93.6185 63.4396 90.9368 61.1682 90.3865C60.6035 90.2287 60.0133 90.1837 59.4313 90.2541C58.8493 90.3245 58.2868 90.5089 57.7761 90.7967Z" fill="#10099F"/>
<path d="M95.6598 23.2346C93.8487 23.1346 91.9975 23.1346 90.2364 23.1346H89.9362C89.1157 23.1346 88.3052 23.1346 87.4847 23.2346H86.9043C86.1239 23.2346 85.3434 23.3447 84.5629 23.4247H84.1626C82.8218 23.5748 81.481 23.7649 80.1601 23.9851L78.9294 24.1952L77.4084 24.5154L75.8574 24.8556L74.4466 25.2058L72.8256 25.6461L71.4847 26.0364C70.9244 26.2065 70.374 26.3966 69.8237 26.5867C69.2733 26.7768 68.9731 26.8569 68.5529 27.007L66.6917 27.7174C65.8312 28.0676 64.9606 28.4279 64.1101 28.7981L63.2596 29.1783C62.5992 29.4785 61.9488 29.7987 61.2583 30.1189L60.658 30.4191C59.9475 30.7793 59.2371 31.1596 58.5366 31.5398L58.2765 31.6899C56.7422 32.6572 55.2112 33.6278 53.6836 34.6017C53.3875 34.8061 53.1606 35.0958 53.0332 35.4322C52.9399 35.6725 52.9031 35.9311 52.9256 36.1879C52.9482 36.4446 53.0295 36.6928 53.1633 36.9132L58.9069 46.4091C49.8412 54.4141 42.4766 57.2358 37.6936 60.2677C37.2634 61.9988 39.905 66.9019 47.3697 63.3797C40.5954 68.8431 35.7824 76.3178 35.8525 78.329C35.8525 79.91 36.4228 80.3303 40.7755 81.2208C43.5373 81.7511 47.1495 82.2214 48.6004 84.5829C51.6023 89.586 53.9037 90.7868 56.4253 90.2465C56.9898 90.069 57.5112 89.7759 57.9563 89.3859C61.8387 86.4741 64.2902 89.3859 66.3415 91.197C68.1526 92.788 68.2727 93.2783 70.6442 94.1989C73.7061 95.3797 78.2189 93.3284 81.7211 94.359C82.1314 94.4791 82.5616 94.4891 82.5917 93.5585C82.5917 93.2683 82.5916 93.1182 81.8012 92.718C75.207 91.0069 69.4134 84.803 63.2196 84.2127C60.4078 83.9325 59.077 85.2934 56.9356 86.1039C55.5548 86.6242 52.653 87.2046 52.1627 84.4028C52.1645 82.9172 52.7439 81.4906 53.7784 80.4244C54.8128 79.3582 56.2213 78.736 57.7061 78.6892C62.496 78.6918 67.2815 78.3977 72.0351 77.8087C72.0351 77.8087 74.4165 77.4485 74.5566 77.3784C78.5591 77.0782 86.7142 83.132 90.1063 87.955C95.4697 95.5998 104.335 103.585 111.44 103.405C103.685 105.536 96.3803 102.944 90.7067 93.9888C90.5449 93.7503 90.3375 93.5462 90.0963 93.3884C91.5573 96.3903 92.0275 100.393 91.5272 106.517C91.5272 108.178 91.7774 109.078 93.0882 110.869C100.253 120.635 93.1682 128.26 93.0882 128.31C86.5941 134.774 73.3859 137.316 71.945 137.806C61.0082 141.138 61.3084 134.154 60.9381 133.804C60.5679 133.453 60.0576 133.473 59.9375 133.804C59.5992 135.014 59.5208 136.283 59.7074 137.526C60.2077 139.027 60.5179 139.857 62.9794 141.088C65.2408 142.209 69.3834 142.089 71.1545 141.969C76.4878 141.644 81.7799 140.83 86.9644 139.537C91.8074 138.186 94.7793 137.606 89.8162 144.831C85.7636 149.393 76.808 153.606 71.5848 156.838C74.99 157.85 78.4695 158.593 81.9913 159.059C97.591 152.055 98.7317 126.959 101.924 121.796C103.395 119.415 109.699 119.525 112.65 120.395L112.51 121.496C111.079 129.701 114.121 132.173 112.61 136.505C107.607 150.614 102.234 156.198 94.9093 159.72C99.1548 159.512 103.372 158.912 107.507 157.929C109.594 154.966 111.493 151.875 113.191 148.673C116.06 143.194 117.853 137.216 118.474 131.062C120.535 132.229 122.537 133.493 124.478 134.854C126.379 139.467 125.719 146.071 123.757 151.755C124.838 151.154 126.149 150.404 127.23 149.754L128.23 149.123C129.487 145.996 130.165 142.667 130.231 139.297L131.562 140.348C133.003 141.478 134.444 142.479 135.925 143.43C138.815 140.945 141.492 138.224 143.93 135.295C133.523 131.702 145.271 122.697 128.991 118.844C145.931 120.095 140.418 127.77 145.931 132.803C148.061 130.011 149.974 127.061 151.655 123.977C156.413 115.217 159.177 105.513 159.75 95.5598C160.823 77.4746 154.677 59.7025 142.662 46.1432C130.646 32.5839 113.743 24.3451 95.6598 23.2346ZM41.3859 77.2683C40.2252 76.728 41.3859 75.147 43.7674 71.8149C61.5085 47.4898 108.808 60.9081 111.87 60.4378C114.121 60.0876 81.6611 43.3372 57.7461 55.945C53.5835 58.1364 43.7374 62.1989 43.117 60.4278C43.117 60.4278 54.6742 54.6442 59.7374 50.0714C60.0455 49.7919 60.3807 49.5438 60.738 49.3309C61.4885 48.7405 62.259 48.1602 63.0394 47.6098C72.1406 42.1143 82.6956 39.5113 93.3083 40.1452C122.016 41.8963 143.95 66.1614 142.279 94.2689C142.163 96.1306 141.946 97.9845 141.629 99.8224C140.669 98.6469 139.786 97.4101 138.987 96.1201C138.987 96.1201 142.729 50.7418 94.7592 43.4873C86.0238 42.1664 76.748 43.5773 70.394 47.2896C72.3725 47.2364 74.3466 47.076 76.3077 46.8093C98.4816 43.027 136.065 56.2552 134.674 90.6567C134.674 91.7874 120.055 68.4929 96.9906 64.1602C71.1345 59.3071 59.077 66.6317 59.077 66.6317C70.9031 65.4116 82.8434 65.9036 94.5291 68.0926C115.542 72.2852 131.612 88.7455 139.977 104.806C139.377 105.966 132.503 105.376 130.802 103.285C125.398 96.6604 111.069 79.3797 92.4078 74.9469C54.354 65.9012 42.8769 77.9188 41.3859 77.2183V77.2683ZM112.53 94.4291C105.896 94.9894 101.734 82.2414 89.9563 78.5091C104.005 79.3196 107.057 90.6267 112.53 94.379V94.4291ZM82.3615 78.0488C93.8387 78.6492 107.017 98.4916 112.961 99.9425C104.435 100.573 91.3671 81.1708 82.3615 77.9988V78.0488ZM93.1782 100.173C100.713 115.932 107.537 104.175 113.831 116.053C108.368 111.58 94.9293 120.505 93.1782 100.123V100.173ZM136.745 138.146C129.671 128.03 116.303 129.901 118.104 119.054C120.655 126.259 133.263 119.195 136.745 138.096V138.146ZM129.511 121.596C100.763 109.589 123.767 100.823 113.811 91.3872C128.07 102.774 110.209 110.809 129.511 121.546V121.596ZM145.931 123.197C143.46 110.189 120.685 118.644 123.917 101.513C127.85 116.933 148.343 100.333 145.931 123.197ZM156.418 95.2596C155.957 103.218 154.023 111.021 150.714 118.274C149.283 112.801 146.938 107.608 143.78 102.914C144.415 100.12 144.82 97.2792 144.991 94.4191C146.752 64.8406 123.637 39.3147 93.4684 37.5135C82.5982 36.8419 71.7719 39.3971 62.349 44.8581L61.9788 44.9282L56.9056 36.5429C67.0031 30.1595 78.6659 26.6854 90.6105 26.5031C102.555 26.3208 114.319 29.4372 124.606 35.5094C134.894 41.5817 143.307 50.3743 148.92 60.9198C154.532 71.4652 157.127 83.3546 156.418 95.2796V95.2596Z" fill="#10099F"/>
<path d="M219.947 23.3446H233.956V56.5654C233.956 63.0895 237.408 66.8418 243.962 66.8418C250.516 66.8418 253.859 63.0895 253.859 56.5654V23.3446H267.977V58.0963C267.977 71.1045 259.152 79.6598 243.962 79.6598C228.773 79.6598 219.947 71.0644 219.947 58.0963V23.3446Z" fill="#10099F"/>
<path d="M287.92 22.5741L315.997 47.4296C317.538 48.6604 318.999 50.0413 320.53 51.192V23.3446H334.339V79.3796H333.798L305.491 54.414L301.038 50.7317V78.5891H287.309V22.5541L287.92 22.5741Z" fill="#10099F"/>
<path d="M354.211 78.5891V23.3446H368.22V78.5891H354.211Z" fill="#10099F"/>
<path d="M396.858 23.3446L403.922 38.6142C406.223 43.7474 408.525 48.7405 409.826 52.733C410.676 50.8918 414.128 42.3665 415.829 38.6142L422.894 23.3446H438.213L410.136 79.3796H409.526L381.438 23.3446H396.858Z" fill="#10099F"/>
<path d="M451.562 23.3446H487.774V35.142H465.601V44.9581H484.552V56.1551H465.601V66.7417H488.925V78.5591H451.562V23.3446Z" fill="#10099F"/>
<path d="M505.726 78.5891V23.3446H525.828C539.026 23.3446 548.152 29.7086 548.152 42.1364C548.152 50.1414 544.09 55.4147 538.026 58.1464L549.153 78.6392H534.494L525.598 60.4478H519.464V78.6392L505.726 78.5891ZM519.464 49.2008H526.469C530.691 49.2008 533.913 47.1995 533.913 42.1364C533.913 37.3034 530.611 35.132 526.388 35.132H519.384L519.464 49.2008Z" fill="#10099F"/>
<path d="M583.674 22.2739C588.702 22.2282 593.695 23.1102 598.404 24.8755V37.8836C595.111 35.8123 589.888 34.4315 584.825 34.4315C579.762 34.4315 576.54 36.1926 576.54 38.9543C576.54 41.716 579.762 43.327 586.206 45.9587C595.492 49.641 601.856 53.5534 601.856 63.3795C601.856 73.5759 594.191 79.7197 580.452 79.7197C574.74 79.7744 569.068 78.7561 563.732 76.7179V63.1594C567.767 65.3261 572.185 66.6856 576.74 67.1619C578.194 67.2972 579.655 67.324 581.113 67.242C585.646 66.9318 588.177 65.701 588.177 63.3996C588.177 60.4877 584.725 59.0268 577.971 56.4952C568.685 52.973 562.701 49.1307 562.701 39.0043C562.701 28.878 571.096 22.2739 583.674 22.2739Z" fill="#10099F"/>
<path d="M618.326 78.5891V23.3446H632.335V78.5891H618.326Z" fill="#10099F"/>
<path d="M647.584 23.3446H691.161V35.142H676.432V78.5691H662.353V35.142H647.584V23.3446Z" fill="#10099F"/>
<path d="M698.606 23.3446H714.556L725.763 44.0576L737.04 23.3446H753.05L732.817 57.486V78.5891H718.809V57.486L698.606 23.3446Z" fill="#10099F"/>
<path d="M217.266 131.842C217.266 116.032 229.463 103.144 246.494 103.144C263.524 103.144 275.722 115.952 275.722 131.842C275.722 147.732 263.605 160.53 246.494 160.53C229.383 160.53 217.266 147.872 217.266 131.842ZM246.494 147.722C255.499 147.722 261.503 140.428 261.503 131.842C261.503 123.257 255.439 115.952 246.494 115.952C237.548 115.952 231.384 123.327 231.384 131.842C231.384 140.358 237.518 147.722 246.494 147.722Z" fill="#10099F"/>
<path d="M292.523 104.185H326.894V116.003H306.561V126.589H323.672V138.096H306.561V159.43H292.553L292.523 104.185Z" fill="#10099F"/>
<path d="M371.932 159.46V104.185H385.941V159.43L371.932 159.46Z" fill="#10099F"/>
<path d="M402.691 131.842C402.691 115.882 414.889 103.145 432.08 103.145C437.595 103.045 443.05 104.31 447.96 106.827V119.645C443.45 117.241 438.421 115.973 433.31 115.953C422.874 115.953 416.81 123.327 416.81 131.842C416.81 140.358 422.714 147.722 432.69 147.722C438.125 147.758 443.491 146.496 448.34 144.04V157.048C444.968 158.809 438.674 160.57 431.469 160.57C414.889 160.53 402.691 147.952 402.691 131.842Z" fill="#10099F"/>
<path d="M465.3 104.185H501.513V116.003H479.339V125.829H498.251V137.026H479.339V147.612H502.664V159.43H465.3V104.185Z" fill="#10099F"/>
<path d="M519.464 159.46V104.185H533.473V147.612H553.425V159.43L519.464 159.46Z" fill="#10099F"/>
<path d="M563.292 159.459L590.759 103.424H591.449L618.916 159.459H604.237L600.315 151.024H581.763L577.921 159.459H563.292ZM596.312 141.578C594.391 137.205 592.16 131.762 591.089 128.39C590.328 130.231 587.327 138.056 585.796 141.578H596.312Z" fill="#10099F"/>
<path d="M633.465 103.455L661.553 128.31C663.084 129.541 664.555 130.922 666.076 132.073V104.185H679.884V160.22H679.364L651.046 135.285L646.604 131.602V159.45H632.855V103.415L633.465 103.455Z" fill="#10099F"/>
<path d="M699.757 159.46V104.185H718.248C737.58 104.185 749.548 115.852 749.548 131.812C749.548 147.772 737.54 159.43 718.318 159.43L699.757 159.46ZM718.168 147.642C729.375 147.642 735.359 140.428 735.359 131.842C735.359 123.257 729.355 116.033 718.088 116.033H713.796V147.642H718.168Z" fill="#10099F"/>
</g>
<defs>
<clipPath id="clip0_279_569">
<rect width="752.53" height="182.23" fill="white" transform="scale(1.00062)"/>
</clipPath>
</defs>
</svg>
